<?xml version="1.0" encoding="utf-8"?>
<!-- Generator: Adobe Illustrator 21.1.0, SVG Export Plug-In . SVG Version: 6.00 Build 0)  -->
<svg version="1.1" id="Layer_1" xmlns="http://www.w3.org/2000/svg" xmlns:xlink="http://www.w3.org/1999/xlink" x="0px" y="0px"
	 viewBox="0 0 48 48" style="enable-background:new 0 0 48 48;" xml:space="preserve">
<style type="text/css">
	.st0{clip-path:url(#SVGID_2_);fill:url(#SVGID_3_);}
	.st1{clip-path:url(#SVGID_5_);fill:url(#SVGID_6_);}
	.st2{clip-path:url(#SVGID_8_);fill:url(#SVGID_9_);}
	.st3{clip-path:url(#SVGID_11_);fill:url(#SVGID_12_);}
</style>
<g>
	<defs>
		<path id="SVGID_1_" d="M44.5,20H24v8.5h11.8C34.7,33.9,30.1,37,24,37c-7.2,0-13-5.8-13-13s5.8-13,13-13c3.1,0,5.9,1.1,8.1,2.9
			l6.4-6.4C34.6,4.1,29.6,2,24,2C11.8,2,2,11.8,2,24s9.8,22,22,22c11,0,21-8,21-22C45,22.7,44.8,21.3,44.5,20z"/>
	</defs>
	<clipPath id="SVGID_2_">
		<use xlink:href="#SVGID_1_"  style="overflow:visible;"/>
	</clipPath>
	<linearGradient id="SVGID_3_" gradientUnits="userSpaceOnUse" x1="8.5" y1="31.9713" x2="8.5" y2="20.1579">
		<stop  offset="0" style="stop-color:#ADCC0E"/>
		<stop  offset="1" style="stop-color:#FFBE39"/>
	</linearGradient>
	<path class="st0" d="M0,37V11l17,13L0,37z"/>
</g>
<g>
	<defs>
		<path id="SVGID_4_" d="M44.5,20H24v8.5h11.8C34.7,33.9,30.1,37,24,37c-7.2,0-13-5.8-13-13s5.8-13,13-13c3.1,0,5.9,1.1,8.1,2.9
			l6.4-6.4C34.6,4.1,29.6,2,24,2C11.8,2,2,11.8,2,24s9.8,22,22,22c11,0,21-8,21-22C45,22.7,44.8,21.3,44.5,20z"/>
	</defs>
	<clipPath id="SVGID_5_">
		<use xlink:href="#SVGID_4_"  style="overflow:visible;"/>
	</clipPath>
	<linearGradient id="SVGID_6_" gradientUnits="userSpaceOnUse" x1="0" y1="12" x2="38.7466" y2="12">
		<stop  offset="0" style="stop-color:#FF7700"/>
		<stop  offset="1" style="stop-color:#D22D23"/>
	</linearGradient>
	<path class="st1" d="M0,11l17,13l7-6.1L48,14V0H0V11z"/>
</g>
<g>
	<defs>
		<path id="SVGID_7_" d="M44.5,20H24v8.5h11.8C34.7,33.9,30.1,37,24,37c-7.2,0-13-5.8-13-13s5.8-13,13-13c3.1,0,5.9,1.1,8.1,2.9
			l6.4-6.4C34.6,4.1,29.6,2,24,2C11.8,2,2,11.8,2,24s9.8,22,22,22c11,0,21-8,21-22C45,22.7,44.8,21.3,44.5,20z"/>
	</defs>
	<clipPath id="SVGID_8_">
		<use xlink:href="#SVGID_7_"  style="overflow:visible;"/>
	</clipPath>
	<linearGradient id="SVGID_9_" gradientUnits="userSpaceOnUse" x1="1.0214" y1="22.3932" x2="52.0017" y2="25.9581">
		<stop  offset="0" style="stop-color:#17FF00"/>
		<stop  offset="0.6" style="stop-color:#2C66C4"/>
	</linearGradient>
	<path class="st2" d="M0,37l30-23l7.9,1L48,0v48H0V37z"/>
</g>
<g>
	<defs>
		<path id="SVGID_10_" d="M44.5,20H24v8.5h11.8C34.7,33.9,30.1,37,24,37c-7.2,0-13-5.8-13-13s5.8-13,13-13c3.1,0,5.9,1.1,8.1,2.9
			l6.4-6.4C34.6,4.1,29.6,2,24,2C11.8,2,2,11.8,2,24s9.8,22,22,22c11,0,21-8,21-22C45,22.7,44.8,21.3,44.5,20z"/>
	</defs>
	<clipPath id="SVGID_11_">
		<use xlink:href="#SVGID_10_"  style="overflow:visible;"/>
	</clipPath>
	<linearGradient id="SVGID_12_" gradientUnits="userSpaceOnUse" x1="38.6172" y1="15.377" x2="30.4833" y2="34.5394">
		<stop  offset="0" style="stop-color:#45B5FE"/>
		<stop  offset="1" style="stop-color:#276FE3"/>
	</linearGradient>
	<path class="st3" d="M48,48L17,24l-4-3l35-10V48z"/>
</g>
</svg>
